<svg id="Layer_1" data-name="Layer 1" xmlns="http://www.w3.org/2000/svg" viewBox="0 0 1000 938.61"><defs><style>.cls-1{fill:#0057e2;}</style></defs><path class="cls-1" d="M666.67,0H333.33A122.77,122.77,0,0,0,456.11,122.77H666.67C783,122.77,877.23,217,877.23,333.33h0c0,116.29-94.27,210.56-210.56,210.56H456.11A122.78,122.78,0,0,0,333.33,666.67H666.67c184.09,0,333.33-149.24,333.33-333.34h0C1000,149.24,850.76,0,666.67,0Z"/><path class="cls-1" d="M333.33,272H666.67A122.78,122.78,0,0,1,543.89,394.72H333.33C217,394.72,122.77,489,122.77,605.28h0c0,116.29,94.27,210.56,210.56,210.56H543.89A122.78,122.78,0,0,1,666.67,938.61H333.33C149.24,938.61,0,789.37,0,605.28H0C0,421.18,149.24,272,333.33,272Z"/></svg>