<svg id="Layer_1" data-name="Layer 1" xmlns="http://www.w3.org/2000/svg" xmlns:xlink="http://www.w3.org/1999/xlink" viewBox="0 0 742.38 1200"><defs><style>.cls-1{fill:url(#linear-gradient);}.cls-2{fill:url(#linear-gradient-2);}.cls-3{opacity:0.35;}</style><linearGradient id="linear-gradient" y1="828.76" x2="556.78" y2="828.76" gradientUnits="userSpaceOnUse"><stop offset="0" stop-color="#36c9ff"/><stop offset="1" stop-color="#0003c7"/></linearGradient><linearGradient id="linear-gradient-2" x1="-3039.36" y1="415.07" x2="-2389.79" y2="415.07" gradientTransform="translate(-2296.99 1015.07) rotate(180)" xlink:href="#linear-gradient"/></defs><path class="cls-1" d="M556.78,507.31v321.5c0-100.69-80.2-182.67-180.2-185.52-1.78,0-3.59-.07-5.39-.07s-3.62,0-5.4.07c-151.27,2.85-273,126.38-273,278.32C92.8,1073,213.58,1196.09,364,1199.9,162.33,1196.07,0,1031.41,0,828.81c0-205,166.19-371.19,371.19-371.19A369.32,369.32,0,0,1,556.78,507.31Z"/><path class="cls-2" d="M92.8,921.61a276.93,276.93,0,0,1,19.35-102.1q2.44-6.35,5.29-12.5c.92-2,1.88-4.08,2.85-6.11s1.9-3.89,2.87-5.82l.74-1.41c.79-1.53,1.59-3,2.4-4.55a3.35,3.35,0,0,0,.3-.54c1-1.88,2.05-3.72,3.12-5.57s2.1-3.61,3.19-5.4c.17-.29.37-.59.52-.86,1.09-1.76,2.15-3.49,3.27-5.2,1.21-1.88,2.42-3.76,3.68-5.62s2.53-3.68,3.81-5.49c1.17-1.63,2.35-3.27,3.54-4.88.4-.51.79-1.06,1.22-1.58,1.06-1.43,2.15-2.84,3.26-4.26,0,0,0,0,0,0q1.92-2.49,3.93-4.9c.22-.25.4-.49.59-.72,1.32-1.58,2.63-3.12,4-4.67s2.92-3.34,4.43-5,3-3.26,4.56-4.87c0,0,0,0,0,0,1.39-1.51,2.85-3,4.33-4.46.32-.32.62-.62.92-.89,1.11-1.14,2.25-2.25,3.41-3.36.65-.62,1.29-1.24,1.93-1.83,1-.94,2-1.88,3.05-2.83l1.61-1.46c1.13-1,2.27-2,3.41-3l1.58-1.39c1.22-1,2.43-2,3.67-3.09.37-.3.71-.6,1.09-.89,1.18-1,2.4-2,3.61-2.9.84-.69,1.68-1.36,2.55-2s2-1.54,3-2.28c.54-.42,1.11-.84,1.65-1.24l3.25-2.37c.91-.67,1.8-1.31,2.72-1.93,1.14-.82,2.3-1.61,3.46-2.38.4-.3.79-.57,1.19-.82,1.34-.89,2.67-1.78,4-2.64.82-.55,1.63-1.07,2.47-1.59s1.93-1.21,2.9-1.78c1.68-1.06,3.36-2.08,5.07-3.07,1.39-.81,2.77-1.63,4.18-2.4,1.56-.89,3.12-1.75,4.71-2.6,1.43-.76,2.87-1.53,4.3-2.25.5-.27,1-.54,1.49-.77,1.11-.56,2.2-1.13,3.31-1.65,1.31-.65,2.6-1.29,3.94-1.91q2.52-1.19,5-2.3c1.19-.57,2.41-1.09,3.62-1.58s2.62-1.14,4-1.66a2.81,2.81,0,0,1,.74-.32c1.78-.75,3.59-1.46,5.39-2.13a14,14,0,0,1,1.51-.57c1.49-.59,3-1.14,4.51-1.68.49-.2,1-.37,1.48-.52,1.86-.67,3.74-1.31,5.62-1.91a.18.18,0,0,1,.15,0c2-.67,3.93-1.28,5.91-1.88.42-.12.84-.27,1.26-.37,1.74-.52,3.47-1,5.23-1.48A6.37,6.37,0,0,1,298,653c2-.55,4-1.07,6-1.56q3.3-.81,6.63-1.56c2-.44,4-.87,6-1.26.7-.15,1.39-.3,2.08-.4,1.66-.32,3.34-.64,5-.91a8.34,8.34,0,0,1,1.13-.2c2-.35,4-.67,6.07-.94,2.27-.35,4.57-.64,6.88-.92s4.6-.52,6.92-.74,4.56-.4,6.86-.57a3.54,3.54,0,0,1,.47,0c2.15-.15,4.3-.28,6.46-.37a6.11,6.11,0,0,1,.74,0c2.18-.1,4.36-.15,6.53-.2-100,2.85-180.2,84.83-180.2,185.52a185.51,185.51,0,0,0,185.6,185.6c102.49,0,185.59-83.1,185.59-185.6V185.59C556.78,83.1,639.88,0,742.38,0V828.81A369.34,369.34,0,0,1,696,1008.57c-62.21,112.17-180.89,188.73-317.64,191.33-2.37.08-4.77.1-7.17.1s-4.8,0-7.18-.1C213.58,1196.09,92.8,1073,92.8,921.61Z"/><g class="cls-3"><path d="M92.85,921.56a277.78,277.78,0,0,1,19.3-102c1.66-4.23,3.41-8.39,5.29-12.5.92-2,1.88-4.08,2.85-6.11s1.9-3.89,2.87-5.82l.74-1.41c.79-1.53,1.59-3,2.4-4.55a3.35,3.35,0,0,0,.3-.54c1-1.88,2.05-3.72,3.12-5.57s2.1-3.61,3.19-5.4c.17-.29.37-.59.52-.86,1.09-1.76,2.15-3.49,3.27-5.2,1.21-1.88,2.42-3.76,3.68-5.62s2.53-3.68,3.81-5.49c1.17-1.63,2.35-3.27,3.54-4.88.4-.51.79-1.06,1.22-1.58,1.06-1.43,2.15-2.84,3.26-4.26,0,0,0,0,0,0q1.92-2.49,3.93-4.9c.22-.25.4-.49.59-.72,1.32-1.58,2.63-3.12,4-4.67s2.92-3.34,4.43-5,3-3.26,4.56-4.87c0,0,0,0,0,0,1.41-1.51,2.87-3,4.33-4.46.32-.32.62-.62.92-.89,1.11-1.14,2.25-2.25,3.41-3.36.65-.62,1.29-1.24,1.93-1.83,1-.94,2-1.88,3.05-2.83l1.61-1.46c1.13-1,2.27-2,3.41-3l1.58-1.39c1.22-1,2.43-2,3.67-3.09.37-.3.71-.6,1.09-.89,1.18-1,2.4-2,3.61-2.9.84-.69,1.68-1.36,2.55-2s2-1.54,3-2.28c.54-.42,1.11-.84,1.65-1.24l3.25-2.37c.91-.67,1.8-1.31,2.72-1.93,1.14-.82,2.3-1.61,3.46-2.38.4-.3.79-.57,1.19-.82,1.34-.89,2.67-1.78,4-2.64.82-.55,1.63-1.07,2.47-1.59s1.93-1.21,2.9-1.78c1.68-1.06,3.36-2.08,5.07-3.07,1.39-.81,2.77-1.63,4.18-2.4,1.56-.89,3.12-1.75,4.71-2.6,1.43-.76,2.87-1.53,4.3-2.25.5-.27,1-.54,1.49-.77,1.11-.56,2.2-1.13,3.31-1.65,1.31-.65,2.6-1.29,3.94-1.91q2.52-1.19,5-2.3c1.19-.57,2.41-1.09,3.62-1.58s2.62-1.14,4-1.66a2.81,2.81,0,0,1,.74-.32c1.78-.75,3.59-1.46,5.39-2.13a14,14,0,0,1,1.51-.57c1.49-.59,3-1.14,4.51-1.68.49-.2,1-.37,1.48-.52,1.86-.67,3.74-1.31,5.62-1.91a.18.18,0,0,1,.15,0c2-.67,3.93-1.28,5.91-1.88.42-.12.84-.27,1.26-.37,1.74-.52,3.47-1,5.23-1.48A6.37,6.37,0,0,1,298,653c2-.55,4-1.07,6-1.56q3.3-.81,6.63-1.56c2-.44,4-.87,6-1.26.7-.15,1.39-.3,2.08-.4,1.66-.32,3.34-.64,5-.91a8.34,8.34,0,0,1,1.13-.2c2-.35,4-.67,6.07-.94,2.27-.35,4.57-.64,6.88-.92s4.6-.52,6.92-.74,4.56-.4,6.86-.57a3.54,3.54,0,0,1,.47,0c2.15-.15,4.3-.28,6.46-.37a6.11,6.11,0,0,1,.74,0c2.18-.1,4.36-.15,6.53-.2-100,2.85-180.2,84.83-180.2,185.52a185,185,0,0,0,7.87,53.55,234.28,234.28,0,0,0-14.75,82.13c0,123.09,94.51,224.1,214.9,234.52-7.4.57-14.87.89-22.42.89C217.47,1199.9,92.85,1075.28,92.85,921.56Z"/></g></svg>