<svg xmlns="http://www.w3.org/2000/svg" viewBox="0 0 81.5 59.49"><g id="Layer_2" data-name="Layer 2"><g id="Layer_1-2" data-name="Layer 1"><path id="scratch" d="M81.37,30.82a.6.6,0,0,0-.85-.09,11.82,11.82,0,0,1-1.68,1.14l-7.22,2.37-1.2.16a14.49,14.49,0,0,0-7.05-5.14A24.17,24.17,0,0,0,60,19.4c-1.78-3.1-7.21-7.25-8.29-8L49.18.85A1.14,1.14,0,0,0,48.5.08,1.25,1.25,0,0,0,47.37.2L38.91,8.06a30.34,30.34,0,0,0-7.34-.36,33.82,33.82,0,0,0-9.09,1.83L10.57,1.76a1.19,1.19,0,0,0-1.29.14,1,1,0,0,0-.38,1L11,20.54A31.76,31.76,0,0,0,5.6,32.14C3.07,31.08,1,30.39.79,30.33a.6.6,0,0,0-.76.38.6.6,0,0,0,.38.76c.05,0,2.32.76,5,1.89a18.17,18.17,0,0,0,.27,7.28,41.85,41.85,0,0,1-4.25-.33.6.6,0,0,0-.18,1.18A39,39,0,0,0,6,41.85a16.07,16.07,0,0,0,1.59,3.37c5.77,9.26,16.52,14.27,29.85,14.27a61.64,61.64,0,0,0,11.78-1.2C61.27,55.91,66.84,50.82,69.39,47a15.29,15.29,0,0,0,2.09-4.61,24.06,24.06,0,0,0,6,.73c.68,0,1.4,0,2.16-.08a.61.61,0,0,0,.55-.65.6.6,0,0,0-.65-.55,23.55,23.55,0,0,1-7.82-.64,10.47,10.47,0,0,0,0-3.79,8.39,8.39,0,0,0-.62-1.83c2.55-.31,6.93-1.22,10.21-3.87A.6.6,0,0,0,81.37,30.82Z"/></g></g></svg>